<svg width="50" height="50" viewBox="0 0 50 50" fill="none" xmlns="http://www.w3.org/2000/svg">
<path d="M24.9993 4.16699C13.5202 4.16699 4.16602 13.5212 4.16602 25.0003C4.16602 36.4795 13.5202 45.8337 24.9993 45.8337C36.4785 45.8337 45.8327 36.4795 45.8327 25.0003C45.8327 13.5212 36.4785 4.16699 24.9993 4.16699ZM30.8118 26.1045L23.4577 33.4587C23.1452 33.7712 22.7493 33.917 22.3535 33.917C21.9577 33.917 21.5618 33.7712 21.2493 33.4587C20.6452 32.8545 20.6452 31.8545 21.2493 31.2503L27.4993 25.0003L21.2493 18.7503C20.6452 18.1462 20.6452 17.1462 21.2493 16.542C21.8535 15.9378 22.8535 15.9378 23.4577 16.542L30.8118 23.8962C31.4368 24.5003 31.4368 25.5003 30.8118 26.1045Z" fill="white"/>
</svg>
