<svg width="50" height="50" viewBox="0 0 50 50" fill="none" xmlns="http://www.w3.org/2000/svg">
<rect width="50" height="50" rx="5" fill="#909B92"/>
<path d="M35 25V32.5C35 35.2625 32.7625 37.5 30 37.5H20C17.2375 37.5 15 35.2625 15 32.5V25C15 24.3125 15.5625 23.75 16.25 23.75H18.7125C19.4 23.75 19.9625 24.3125 19.9625 25V28.925C19.9625 29.85 20.475 30.7 21.2875 31.1375C21.65 31.3375 22.05 31.4375 22.4625 31.4375C22.9375 31.4375 23.4125 31.3 23.825 31.025L25.0125 30.25L26.1125 30.9875C26.875 31.5 27.85 31.5625 28.6625 31.125C29.4875 30.6875 30 29.85 30 28.9125V25C30 24.3125 30.5625 23.75 31.25 23.75H33.75C34.4375 23.75 35 24.3125 35 25Z" fill="#F0F1EA"/>
<path d="M36.875 18.75V20C36.875 21.375 36.2125 22.5 34.375 22.5H15.625C13.7125 22.5 13.125 21.375 13.125 20V18.75C13.125 17.375 13.7125 16.25 15.625 16.25H34.375C36.2125 16.25 36.875 17.375 36.875 18.75Z" fill="#F0F1EA"/>
<path d="M24.5495 16.2498H17.6495C17.2245 15.7873 17.237 15.0748 17.687 14.6248L19.462 12.8498C19.9245 12.3873 20.687 12.3873 21.1495 12.8498L24.5495 16.2498Z" fill="#F0F1EA"/>
<path d="M32.3375 16.2498H25.4375L28.8375 12.8498C29.3 12.3873 30.0625 12.3873 30.525 12.8498L32.3 14.6248C32.75 15.0748 32.7625 15.7873 32.3375 16.2498Z" fill="#F0F1EA"/>
<path d="M27.4633 23.75C28.1508 23.75 28.7133 24.3125 28.7133 25V28.9125C28.7133 29.9125 27.6008 30.5125 26.7758 29.95L25.6508 29.2C25.2383 28.925 24.7008 28.925 24.2758 29.2L23.1008 29.975C22.2758 30.525 21.1758 29.925 21.1758 28.9375V25C21.1758 24.3125 21.7383 23.75 22.4258 23.75H27.4633Z" fill="#F0F1EA"/>
</svg>
