<svg width="50" height="50" viewBox="0 0 50 50" fill="none" xmlns="http://www.w3.org/2000/svg">
<rect width="50" height="50" rx="5" fill="#909B92"/>
<path d="M24.3995 17.1118L25 17.9145L25.6005 17.1118C26.7281 15.6046 28.5349 14.625 30.55 14.625C33.9698 14.625 36.75 17.4107 36.75 20.8625C36.75 22.2684 36.5258 23.5656 36.1364 24.7691L36.1349 24.774C35.2011 27.7291 33.2859 30.1151 31.2127 31.8968C29.1363 33.6814 26.9444 34.8224 25.5334 35.3025L25.5334 35.3024L25.5254 35.3053C25.4181 35.3431 25.2276 35.375 25 35.375C24.7724 35.375 24.5819 35.3431 24.4746 35.3053L24.4746 35.3052L24.4666 35.3025C23.0556 34.8224 20.8637 33.6814 18.7873 31.8968C16.7141 30.1151 14.7989 27.7291 13.8651 24.774L13.8652 24.774L13.8636 24.7691C13.4742 23.5656 13.25 22.2684 13.25 20.8625C13.25 17.4107 16.0302 14.625 19.45 14.625C21.4651 14.625 23.2719 15.6046 24.3995 17.1118Z" fill="#F0F1EA" stroke="#F0F1EA" stroke-width="1.5"/>
</svg>
