<svg width="50" height="50" viewBox="0 0 50 50" fill="none" xmlns="http://www.w3.org/2000/svg">
<rect width="50" height="50" rx="5" fill="#909B92"/>
<path d="M27.1631 14.3873L29.3631 18.7873C29.6631 19.3998 30.4631 19.9873 31.1381 20.0998L35.1256 20.7623C37.6756 21.1873 38.2756 23.0373 36.4381 24.8623L33.3381 27.9623C32.8131 28.4873 32.5256 29.4998 32.6881 30.2248L33.5756 34.0623C34.2756 37.0998 32.6631 38.2748 29.9756 36.6873L26.2381 34.4748C25.5631 34.0748 24.4506 34.0748 23.7631 34.4748L20.0256 36.6873C17.3506 38.2748 15.7256 37.0873 16.4256 34.0623L17.3131 30.2248C17.4756 29.4998 17.1881 28.4873 16.6631 27.9623L13.5631 24.8623C11.7381 23.0373 12.3256 21.1873 14.8756 20.7623L18.8631 20.0998C19.5256 19.9873 20.3256 19.3998 20.6256 18.7873L22.8256 14.3873C24.0256 11.9998 25.9756 11.9998 27.1631 14.3873Z" fill="#F0F1EA" stroke="#F0F1EA" stroke-width="1.5" stroke-linecap="round" stroke-linejoin="round"/>
</svg>
