<svg width="50" height="50" viewBox="0 0 50 50" fill="none" xmlns="http://www.w3.org/2000/svg">
<rect width="50" height="50" rx="5" fill="#909B92"/>
<path d="M19.8125 18.4375C19.8125 15.5767 22.1392 13.25 25 13.25C27.8603 13.25 30.1867 15.5759 30.1875 18.4361C30.1758 21.2429 27.9876 23.5078 25.1989 23.6125H25.1989H25.1988H25.1988H25.1987H25.1987H25.1987H25.1986H25.1986H25.1986H25.1985H25.1985H25.1984H25.1984H25.1984H25.1983H25.1983H25.1983H25.1982H25.1982H25.1981H25.1981H25.1981H25.198H25.198H25.198H25.1979H25.1979H25.1978H25.1978H25.1978H25.1977H25.1977H25.1976H25.1976H25.1976H25.1975H25.1975H25.1975H25.1974H25.1974H25.1973H25.1973H25.1973H25.1972H25.1972H25.1971H25.1971H25.1971H25.197H25.197H25.1969H25.1969H25.1969H25.1968H25.1968H25.1967H25.1967H25.1967H25.1966H25.1966H25.1965H25.1965H25.1964H25.1964H25.1964H25.1963H25.1963H25.1962H25.1962H25.1962H25.1961H25.1961H25.196H25.196H25.1959H25.1959H25.1959H25.1958H25.1958H25.1957H25.1957H25.1956H25.1956H25.1955H25.1955H25.1955H25.1954H25.1954H25.1953H25.1953H25.1952H25.1952H25.1951H25.1951H25.1951H25.195H25.195H25.1949H25.1949H25.1948H25.1948H25.1947H25.1947H25.1946H25.1946H25.1946H25.1945H25.1945H25.1944H25.1944H25.1943H25.1943H25.1942H25.1942H25.1941H25.1941H25.194H25.194H25.1939H25.1939H25.1938H25.1938H25.1937H25.1937H25.1936H25.1936H25.1935H25.1935H25.1934H25.1934H25.1933H25.1933H25.1932H25.1932H25.1931H25.1931H25.193H25.193H25.1929H25.1929H25.1928H25.1928H25.1927H25.1926H25.1926H25.1925H25.1925H25.1924H25.1924H25.1923H25.1923H25.1922H25.1922H25.1921H25.192H25.192H25.1919H25.1919H25.1918H25.1918H25.1917H25.1916H25.1916H25.1915H25.1915H25.1914H25.1914H25.1913H25.1912H25.1912H25.1911H25.1911H25.191H25.1909H25.1909H25.1908H25.1908H25.1907H25.1906H25.1906H25.1905H25.1905H25.1904H25.1903H25.1903H25.1902H25.1901H25.1901H25.19H25.19H25.1899H25.1898H25.1898H25.1897H25.1896H25.1896H25.1895H25.1894H25.1894H25.1893H25.1892H25.1892H25.1891H25.189H25.189H25.1889H25.1888H25.1888H25.1887H25.1886H25.1886H25.1885H25.1884H25.1884H25.1883H25.1882H25.1881H25.1881H25.188H25.1879H25.1879H25.1878H25.1877H25.1876H25.1876H25.1875H25.1874H25.1872H25.1871H25.1869H25.1868H25.1866H25.1865H25.1863H25.1862H25.186H25.1859H25.1858H25.1856H25.1855H25.1853H25.1852H25.185H25.1849H25.1848H25.1846H25.1845H25.1843H25.1842H25.1841H25.1839H25.1838H25.1836H25.1835H25.1834H25.1832H25.1831H25.183H25.1828H25.1827H25.1825H25.1824H25.1823H25.1821H25.182H25.1819H25.1817H25.1816H25.1815H25.1813H25.1812H25.181H25.1809H25.1808H25.1806H25.1805H25.1804H25.1802H25.1801H25.18H25.1798H25.1797H25.1796H25.1794H25.1793H25.1792H25.1791H25.1789H25.1788H25.1787H25.1785H25.1784H25.1783H25.1781H25.178H25.1779H25.1778H25.1776H25.1775H25.1774H25.1772H25.1771H25.177H25.1769H25.1767H25.1766H25.1765H25.1763H25.1762H25.1761H25.176H25.1758H25.1757H25.1756H25.1755H25.1753H25.1752H25.1751H25.175H25.1748H25.1747H25.1746H25.1745H25.1743H25.1742C25.0561 23.5995 24.9355 23.601 24.8251 23.611C21.9738 23.4874 19.8125 21.2241 19.8125 18.4375Z" fill="#F0F1EA" stroke="#F0F1EA" stroke-width="1.5"/>
<path d="M19.0673 35.1144L19.0652 35.1131C17.6418 34.1641 16.9492 32.9497 16.9492 31.7246C16.9492 30.4989 17.6424 29.2724 19.0773 28.3115C20.6859 27.2473 22.8332 26.6934 25.0148 26.6934C27.1974 26.6934 29.338 27.2477 30.9332 28.3111C32.3512 29.2565 33.0381 30.4704 33.0492 31.7027C33.0481 32.9399 32.3547 34.1538 30.9305 35.1149C29.3293 36.1898 27.1834 36.7496 24.9992 36.7496C22.8148 36.7496 20.6686 36.1896 19.0673 35.1144Z" fill="#F0F1EA" stroke="#F0F1EA" stroke-width="1.5"/>
</svg>
