<svg width="23" height="22" viewBox="0 0 23 22" fill="none" xmlns="http://www.w3.org/2000/svg">
<path d="M11.0235 1.00032C11.1711 0.535464 11.8289 0.535464 11.9765 1.00032L14.1511 7.84656C14.2174 8.05533 14.4119 8.19663 14.6309 8.19518L21.8141 8.14769C22.3018 8.14447 22.5051 8.77006 22.1086 9.05413L16.2694 13.2378C16.0913 13.3654 16.017 13.5941 16.0861 13.8019L18.351 20.6188C18.5048 21.0817 17.9726 21.4683 17.5799 21.179L11.7966 16.9185C11.6202 16.7885 11.3798 16.7885 11.2034 16.9185L5.42008 21.179C5.02739 21.4683 4.49524 21.0817 4.64902 20.6188L6.9139 13.8019C6.98296 13.5941 6.90868 13.3654 6.73061 13.2378L0.89142 9.05413C0.494945 8.77006 0.698211 8.14447 1.18594 8.14769L8.36907 8.19518C8.58812 8.19663 8.7826 8.05533 8.84892 7.84656L11.0235 1.00032Z" fill="#273524"/>
</svg>
