<svg width="25" height="24" viewBox="0 0 25 24" fill="none" xmlns="http://www.w3.org/2000/svg">
<g clip-path="url(#clip0_2003_1661)">
<path d="M4 4.5H5.55848C6.2542 4.5 6.60206 4.5 6.86395 4.68876C7.12584 4.87752 7.23584 5.20753 7.45585 5.86754L8 7.5" stroke="white" stroke-linecap="round"/>
<path d="M18 17.5H8.55091C8.40471 17.5 8.33162 17.5 8.27616 17.4938C7.68857 17.428 7.28605 16.8695 7.40945 16.2913C7.42109 16.2367 7.44421 16.1674 7.49044 16.0287V16.0287C7.54177 15.8747 7.56743 15.7977 7.59579 15.7298C7.88607 15.0342 8.54277 14.5608 9.29448 14.5054C9.3679 14.5 9.44906 14.5 9.61137 14.5H15" stroke="white" stroke-linecap="round" stroke-linejoin="round"/>
<path d="M14.6787 14.5H11.6376C10.3584 14.5 9.71875 14.5 9.21781 14.1697C8.71687 13.8394 8.46492 13.2515 7.961 12.0757L7.79218 11.6818C6.98269 9.79294 6.57794 8.84853 7.02255 8.17426C7.46715 7.5 8.49464 7.5 10.5496 7.5H15.8305C18.1295 7.5 19.279 7.5 19.7126 8.24711C20.1462 8.99422 19.5758 9.99229 18.4352 11.9884L18.1517 12.4846C17.5897 13.4679 17.3088 13.9596 16.8432 14.2298C16.3776 14.5 15.8113 14.5 14.6787 14.5Z" stroke="white" stroke-linecap="round"/>
<circle cx="17.5" cy="20" r="1" fill="white"/>
<circle cx="9.5" cy="20" r="1" fill="white"/>
</g>
<defs>
<clipPath id="clip0_2003_1661">
<rect width="24" height="24" fill="white" transform="translate(0.5)"/>
</clipPath>
</defs>
</svg>
